<?xml version="1.0" encoding="utf-8"?>
<!-- Generator: Adobe Illustrator 24.0.1, SVG Export Plug-In . SVG Version: 6.00 Build 0)  -->
<svg version="1.1" id="Layer_1" xmlns="http://www.w3.org/2000/svg" xmlns:xlink="http://www.w3.org/1999/xlink" x="0px" y="0px"
	 viewBox="0 0 533 111" style="enable-background:new 0 0 533 111;" xml:space="preserve">
<style type="text/css">
	.st0{fill:#FFFFFF;}
</style>
<path class="st0" d="M96.1,90c0-3.7,0.1-7.4,0-11.2c-0.2-7.3,0.4-14.9-1-22C92,41.6,81.4,33.2,66.8,29.4
	c-18.4-4.8-39.2,10.2-41.2,30c-1,10.3,1.5,19.6,8.3,27.4c9.1,10.6,23.5,13.1,37,6.8c4.5-2.1,8.5-4.9,11.9-8.4
	c0.6-0.7,1.2-1.4,2.2-2.1c-1.3,6.2,0.7,10.5,7.1,13.1c-1.3,1-2.1,1.7-3,2.5c-8.4,7.3-18.2,10.9-29.2,11.6
	c-13.3,0.8-25.6-2.3-36.5-10.1C10.7,91,3.5,78.5,1.4,63C-2.1,37.3,12.2,13.2,36.3,3.7C65.2-7.6,99.1,8,108.9,37.3
	c5,14.9,2.5,29.2-5.3,42.6c-2.1,3.6-4.7,6.9-7.1,10.4C96.4,90.2,96.2,90.1,96.1,90z"/>
<path class="st0" d="M170,91h-11.5l25.9-72h12.6l25.9,72h-11.5l-20.4-58.9h-0.6L170,91z M171.9,62.8h37.4v9.1h-37.4V62.8z M256.5,91
	h-23.3V19h24c7.1,0,13.1,1.4,18.2,4.3c5.1,2.9,8.9,7,11.6,12.3c2.7,5.3,4.1,11.8,4.1,19.2c0,7.5-1.4,13.9-4.1,19.3
	c-2.7,5.4-6.7,9.5-11.8,12.4C270.1,89.6,263.9,91,256.5,91z M244.1,81.5h11.8c5.5,0,10-1,13.7-3.1c3.6-2.1,6.4-5.1,8.2-9
	c1.8-4,2.7-8.8,2.7-14.5c0-5.6-0.9-10.4-2.7-14.4c-1.8-3.9-4.4-6.9-8-9c-3.5-2-7.9-3.1-13.2-3.1h-12.5V81.5z M304.7,19h13.2l22.9,56
	h0.8l22.9-56h13.2v72h-10.3V38.9h-0.7l-21.2,52h-8.6l-21.2-52H315V91h-10.3V19z M404.4,19v72h-10.9V19H404.4z M478.3,19v72h-10
	l-36.6-52.8h-0.7V91h-10.9V19h10.1l36.6,52.9h0.7V19H478.3z"/>
</svg>
