<svg width="533" height="111" viewBox="0 0 533 111" fill="none" xmlns="http://www.w3.org/2000/svg">
<path d="M96.0813 90.013C96.0813 86.29 96.1707 82.5648 96.0625 78.8452C95.8487 71.5004 96.4812 63.9661 95.0493 56.8554C91.9735 41.5802 81.4153 33.1729 66.7511 29.3961C48.3073 24.646 27.5036 39.6447 25.5489 59.3776C24.5259 69.7062 27.0699 78.9512 33.8311 86.8027C42.9284 97.3673 57.3659 99.9041 70.8635 93.6007C75.3321 91.5141 79.326 88.7378 82.7788 85.2099C83.4151 84.5597 83.9318 83.7927 84.9537 83.1023C83.6387 89.2907 85.6963 93.5759 92.0407 96.165C90.7678 97.2139 89.8966 97.8938 89.0668 98.6214C80.7016 105.958 70.8507 109.546 59.8419 110.206C46.5322 111.004 34.2242 107.903 23.3649 100.112C10.6848 91.0138 3.50646 78.4679 1.41759 63.039C-2.06071 37.3446 12.2013 13.1584 36.3345 3.70064C65.1997 -7.61147 99.118 7.97872 108.905 37.2803C113.897 52.2275 111.375 66.4864 103.591 79.913C101.492 83.5337 98.8699 86.8512 96.4879 90.3077C96.3526 90.2096 96.217 90.1111 96.0813 90.013Z" fill="#ED1B24"/>
<path d="M169.992 91H158.461L184.371 19H196.922L222.832 91H211.301L190.945 32.0781H190.383L169.992 91ZM171.926 62.8047H209.332V71.9453H171.926V62.8047ZM256.538 91H233.229V19H257.276C264.331 19 270.39 20.4414 275.452 23.3242C280.515 26.1836 284.394 30.2969 287.089 35.6641C289.808 41.0078 291.167 47.418 291.167 54.8945C291.167 62.3945 289.796 68.8398 287.054 74.2305C284.335 79.6211 280.397 83.7695 275.241 86.6758C270.085 89.5586 263.851 91 256.538 91ZM244.093 81.5078H255.94C261.425 81.5078 265.983 80.4766 269.616 78.4141C273.249 76.3281 275.968 73.3164 277.772 69.3789C279.577 65.418 280.479 60.5898 280.479 54.8945C280.479 49.2461 279.577 44.4531 277.772 40.5156C275.991 36.5781 273.331 33.5898 269.792 31.5508C266.253 29.5117 261.858 28.4922 256.608 28.4922H244.093V81.5078ZM304.676 19H317.859L340.781 74.9687H341.625L364.547 19H377.73V91H367.395V38.8984H366.727L345.492 90.8945H336.914L315.68 38.8633H315.012V91H304.676V19ZM404.388 19V91H393.524V19H404.388ZM478.321 19V91H468.337L431.739 38.1953H431.071V91H420.208V19H430.263L466.896 71.875H467.563V19H478.321Z" fill="#1A1A1A"/>
</svg>
