<?xml version="1.0" encoding="utf-8"?>
<!-- Generator: Adobe Illustrator 24.0.1, SVG Export Plug-In . SVG Version: 6.00 Build 0)  -->
<svg version="1.1" id="Layer_1" xmlns="http://www.w3.org/2000/svg" xmlns:xlink="http://www.w3.org/1999/xlink" x="0px" y="0px"
	 viewBox="0 0 116 111" style="enable-background:new 0 0 116 111;" xml:space="preserve">
<style type="text/css">
	.st0{fill:#ED1B24;}
</style>
<path class="st0" d="M96.1,90c0-3.7,0.1-7.4,0-11.2c-0.2-7.3,0.4-14.9-1-22C92,41.6,81.4,33.2,66.8,29.4
	c-18.4-4.8-39.2,10.2-41.2,30c-1,10.3,1.5,19.6,8.3,27.4c9.1,10.6,23.5,13.1,37,6.8c4.5-2.1,8.5-4.9,11.9-8.4
	c0.6-0.7,1.2-1.4,2.2-2.1c-1.3,6.2,0.7,10.5,7.1,13.1c-1.3,1-2.1,1.7-3,2.5c-8.4,7.3-18.2,10.9-29.2,11.6
	c-13.3,0.8-25.6-2.3-36.5-10.1C10.7,91,3.5,78.5,1.4,63C-2.1,37.3,12.2,13.2,36.3,3.7C65.2-7.6,99.1,8,108.9,37.3
	c5,14.9,2.5,29.2-5.3,42.6c-2.1,3.6-4.7,6.9-7.1,10.4C96.4,90.2,96.2,90.1,96.1,90z"/>
</svg>
